<svg xmlns="http://www.w3.org/2000/svg" width="64" height="64" viewBox="0 0 16.933 16.933"><g style="stroke-width:.81184644"><g style="stroke-width:.81184644"><path d="M25.453 328.592c-.582 0-1.058.477-1.058 1.058v2.214c0 .196.207.324.382.236l.41-.205.413.205a.265.265 0 0 0 .236 0l.53-.265a.265.265 0 0 0 .146-.237v-1.948c0-.581-.477-1.058-1.059-1.058z" style="color:#000;font-style:normal;font-variant:normal;font-weight:400;font-stretch:normal;font-size:medium;line-height:normal;font-family:sans-serif;font-variant-ligatures:normal;font-variant-position:normal;font-variant-caps:normal;font-variant-numeric:normal;font-variant-alternates:normal;font-feature-settings:normal;text-indent:0;text-align:start;text-decoration:none;text-decoration-line:none;text-decoration-style:solid;text-decoration-color:#000;letter-spacing:normal;word-spacing:normal;text-transform:none;writing-mode:lr-tb;direction:ltr;text-orientation:mixed;dominant-baseline:auto;baseline-shift:baseline;text-anchor:start;white-space:normal;shape-padding:0;clip-rule:nonzero;display:inline;overflow:visible;visibility:visible;opacity:1;isolation:auto;mix-blend-mode:normal;color-interpolation:sRGB;color-interpolation-filters:linearRGB;solid-color:#000;solid-opacity:1;vector-effect:none;fill:#b7b4b3;fill-opacity:1;fill-rule:nonzero;stroke:none;stroke-width:.42960232;stroke-linecap:round;stroke-linejoin:round;stroke-miterlimit:1.5;stroke-dasharray:none;stroke-dashoffset:0;stroke-opacity:1;paint-order:markers fill stroke;color-rendering:auto;image-rendering:auto;shape-rendering:auto;text-rendering:auto;enable-background:accumulate" transform="translate(-26.47 -403.776) scale(1.23176)"/><path d="M25.453 328.592a.265.265 0 0 0 0 .53c.194 0 .305.053.385.138.08.084.136.216.144.402v5.014a.265.265 0 0 0 .01.072l1.322 4.762a.265.265 0 0 0 .256.193h5.82c.582 0 1.06-.477 1.06-1.058v-8.995c0-.581-.478-1.058-1.06-1.058z" style="color:#000;font-style:normal;font-variant:normal;font-weight:400;font-stretch:normal;font-size:medium;line-height:normal;font-family:sans-serif;font-variant-ligatures:normal;font-variant-position:normal;font-variant-caps:normal;font-variant-numeric:normal;font-variant-alternates:normal;font-feature-settings:normal;text-indent:0;text-align:start;text-decoration:none;text-decoration-line:none;text-decoration-style:solid;text-decoration-color:#000;letter-spacing:normal;word-spacing:normal;text-transform:none;writing-mode:lr-tb;direction:ltr;text-orientation:mixed;dominant-baseline:auto;baseline-shift:baseline;text-anchor:start;white-space:normal;shape-padding:0;clip-rule:nonzero;display:inline;overflow:visible;visibility:visible;opacity:1;isolation:auto;mix-blend-mode:normal;color-interpolation:sRGB;color-interpolation-filters:linearRGB;solid-color:#000;solid-opacity:1;vector-effect:none;fill:#efebe9;fill-opacity:1;fill-rule:nonzero;stroke:none;stroke-width:.42960232;stroke-linecap:round;stroke-linejoin:round;stroke-miterlimit:1.5;stroke-dasharray:none;stroke-dashoffset:0;stroke-opacity:1;paint-order:markers fill stroke;color-rendering:auto;image-rendering:auto;shape-rendering:auto;text-rendering:auto;enable-background:accumulate" transform="translate(-26.47 -403.776) scale(1.23176)"/><path d="M27.305 330.973a.265.265 0 0 0-.264.263v2.647a.265.265 0 0 0 .264.265h5.82a.265.265 0 0 0 .266-.265v-2.647a.265.265 0 0 0-.266-.263Z" style="color:#000;font-style:normal;font-variant:normal;font-weight:400;font-stretch:normal;font-size:medium;line-height:normal;font-family:sans-serif;font-variant-ligatures:normal;font-variant-position:normal;font-variant-caps:normal;font-variant-numeric:normal;font-variant-alternates:normal;font-feature-settings:normal;text-indent:0;text-align:start;text-decoration:none;text-decoration-line:none;text-decoration-style:solid;text-decoration-color:#000;letter-spacing:normal;word-spacing:normal;text-transform:none;writing-mode:lr-tb;direction:ltr;text-orientation:mixed;dominant-baseline:auto;baseline-shift:baseline;text-anchor:start;white-space:normal;shape-padding:0;clip-rule:nonzero;display:inline;overflow:visible;visibility:visible;opacity:1;isolation:auto;mix-blend-mode:normal;color-interpolation:sRGB;color-interpolation-filters:linearRGB;solid-color:#000;solid-opacity:1;vector-effect:none;fill:#ffcd40;fill-opacity:1;fill-rule:nonzero;stroke:none;stroke-width:.42960232;stroke-linecap:round;stroke-linejoin:round;stroke-miterlimit:1.5;stroke-dasharray:none;stroke-dashoffset:0;stroke-opacity:1;paint-order:markers fill stroke;color-rendering:auto;image-rendering:auto;shape-rendering:auto;text-rendering:auto;enable-background:accumulate" transform="translate(-26.47 -403.776) scale(1.23176)"/><path d="M31.291 335.734c-.29 0-.53.24-.53.53 0 .289.24.529.53.529.29 0 .53-.24.53-.53 0-.288-.24-.529-.53-.529zM32.861 337.87c.29 0 .53-.241.53-.53 0-.29-.24-.53-.53-.53-.289 0-.529.24-.529.53 0 .289.24.53.53.53z" style="color:#000;font-style:normal;font-variant:normal;font-weight:400;font-stretch:normal;font-size:medium;line-height:normal;font-family:sans-serif;font-variant-ligatures:normal;font-variant-position:normal;font-variant-caps:normal;font-variant-numeric:normal;font-variant-alternates:normal;font-feature-settings:normal;text-indent:0;text-align:start;text-decoration:none;text-decoration-line:none;text-decoration-style:solid;text-decoration-color:#000;letter-spacing:normal;word-spacing:normal;text-transform:none;writing-mode:lr-tb;direction:ltr;text-orientation:mixed;dominant-baseline:auto;baseline-shift:baseline;text-anchor:start;white-space:normal;shape-padding:0;clip-rule:nonzero;display:inline;overflow:visible;visibility:visible;opacity:1;isolation:auto;mix-blend-mode:normal;color-interpolation:sRGB;color-interpolation-filters:linearRGB;solid-color:#000;solid-opacity:1;vector-effect:none;fill:#039be5;fill-opacity:1;fill-rule:nonzero;stroke:none;stroke-width:.42960232;stroke-linecap:round;stroke-linejoin:round;stroke-miterlimit:1.5;stroke-dasharray:none;stroke-dashoffset:0;stroke-opacity:1;paint-order:markers fill stroke;color-rendering:auto;image-rendering:auto;shape-rendering:auto;text-rendering:auto;enable-background:accumulate" transform="translate(-26.47 -403.776) scale(1.23176)"/><path d="M25.453 328.592c-.582 0-1.058.477-1.058 1.058v2.281c0 .353.529.353.529 0v-2.28c0-.298.231-.53.53-.53.297 0 .528.232.528.53v2.115c0 .352.53.352.53 0v-2.116c0-.581-.477-1.058-1.059-1.058z" style="color:#000;font-style:normal;font-variant:normal;font-weight:400;font-stretch:normal;font-size:medium;line-height:normal;font-family:sans-serif;font-variant-ligatures:normal;font-variant-position:normal;font-variant-caps:normal;font-variant-numeric:normal;font-variant-alternates:normal;font-feature-settings:normal;text-indent:0;text-align:start;text-decoration:none;text-decoration-line:none;text-decoration-style:solid;text-decoration-color:#000;letter-spacing:normal;word-spacing:normal;text-transform:none;writing-mode:lr-tb;direction:ltr;text-orientation:mixed;dominant-baseline:auto;baseline-shift:baseline;text-anchor:start;white-space:normal;shape-padding:0;clip-rule:nonzero;display:inline;overflow:visible;visibility:visible;opacity:1;isolation:auto;mix-blend-mode:normal;color-interpolation:sRGB;color-interpolation-filters:linearRGB;solid-color:#000;solid-opacity:1;vector-effect:none;fill:#efebe9;fill-opacity:1;fill-rule:nonzero;stroke:none;stroke-width:.42960232;stroke-linecap:round;stroke-linejoin:round;stroke-miterlimit:1.5;stroke-dasharray:none;stroke-dashoffset:0;stroke-opacity:1;paint-order:markers fill stroke;color-rendering:auto;image-rendering:auto;shape-rendering:auto;text-rendering:auto;enable-background:accumulate" transform="translate(-26.47 -403.776) scale(1.23176)"/></g><g style="stroke-width:.81184644"><path d="M23.27 334.412a.996.996 0 0 0-.993.992v4.366c0 .545.447.992.993.992h3.572a.996.996 0 0 0 .992-.992v-4.366a.996.996 0 0 0-.992-.992z" style="color:#000;font-style:normal;font-variant:normal;font-weight:400;font-stretch:normal;font-size:medium;line-height:normal;font-family:sans-serif;font-variant-ligatures:normal;font-variant-position:normal;font-variant-caps:normal;font-variant-numeric:normal;font-variant-alternates:normal;font-feature-settings:normal;text-indent:0;text-align:start;text-decoration:none;text-decoration-line:none;text-decoration-style:solid;text-decoration-color:#000;letter-spacing:normal;word-spacing:normal;text-transform:none;writing-mode:lr-tb;direction:ltr;text-orientation:mixed;dominant-baseline:auto;baseline-shift:baseline;text-anchor:start;white-space:normal;shape-padding:0;clip-rule:nonzero;display:inline;overflow:visible;visibility:visible;opacity:1;isolation:auto;mix-blend-mode:normal;color-interpolation:sRGB;color-interpolation-filters:linearRGB;solid-color:#000;solid-opacity:1;vector-effect:none;fill:#444;fill-opacity:1;fill-rule:nonzero;stroke:none;stroke-width:.42960232;stroke-linecap:round;stroke-linejoin:round;stroke-miterlimit:1.5;stroke-dasharray:none;stroke-dashoffset:0;stroke-opacity:1;paint-order:markers fill stroke;color-rendering:auto;image-rendering:auto;shape-rendering:auto;text-rendering:auto;enable-background:accumulate" transform="translate(-26.47 -403.776) scale(1.23176)"/><path d="M23.464 335.774v.98c0 .136.11.246.246.246h2.693c.135 0 .245-.11.244-.246v-.98a.245.245 0 0 0-.244-.244H23.71c-.102 0-.246.095-.246.244z" style="color:#000;font-style:normal;font-variant:normal;font-weight:400;font-stretch:normal;font-size:medium;line-height:normal;font-family:sans-serif;font-variant-ligatures:normal;font-variant-position:normal;font-variant-caps:normal;font-variant-numeric:normal;font-variant-alternates:normal;font-feature-settings:normal;text-indent:0;text-align:start;text-decoration:none;text-decoration-line:none;text-decoration-style:solid;text-decoration-color:#000;letter-spacing:normal;word-spacing:normal;text-transform:none;writing-mode:lr-tb;direction:ltr;text-orientation:mixed;dominant-baseline:auto;baseline-shift:baseline;text-anchor:start;white-space:normal;shape-padding:0;clip-rule:nonzero;display:inline;overflow:visible;visibility:visible;opacity:1;isolation:auto;mix-blend-mode:normal;color-interpolation:sRGB;color-interpolation-filters:linearRGB;solid-color:#000;solid-opacity:1;vector-effect:none;fill:#ffcd40;fill-opacity:1;fill-rule:nonzero;stroke:none;stroke-width:.42960232;stroke-linecap:round;stroke-linejoin:round;stroke-miterlimit:1.5;stroke-dasharray:none;stroke-dashoffset:0;stroke-opacity:1;paint-order:markers fill stroke;color-rendering:auto;image-rendering:auto;shape-rendering:auto;text-rendering:auto;enable-background:accumulate" transform="translate(-26.47 -403.776) scale(1.23176)"/></g><path d="M2.476 285.156c-.582 0-1.058.477-1.058 1.058v2.381c0 .197.206.324.382.237l.412-.205.41.205a.264.264 0 0 0 .237 0l.146-.073v2.217H.293a.996.996 0 0 0-.993.993v4.367c0 .545.448.992.993.992h3.572a.996.996 0 0 0 .992-.992v-.067h5.556c.582 0 1.06-.476 1.06-1.058v-8.997c0-.581-.478-1.058-1.06-1.058zm0 .53c.298 0 .53.23.53.528v1.954l-.264.133-.412-.205a.265.265 0 0 0-.237 0l-.146.072v-1.954c0-.297.231-.529.529-.529zm.91 0h7.027c.298 0 .53.23.53.528v8.997c0 .298-.232.529-.53.529H4.857v-3.771a.996.996 0 0 0-.992-.993h-.33v-4.762c0-.193-.057-.372-.149-.529zm.916.528c-.345.024-.32.539.026.53h3.968c.36.008.36-.537 0-.53H4.302zm5.028 0c-.345.024-.32.539.025.53h.795c.36.008.36-.537 0-.53H9.33zm-5.266 1.589v2.645c0 .146.117.265.263.265h5.823c.146 0 .264-.12.263-.265v-2.645a.265.265 0 0 0-.263-.266H4.327a.257.257 0 0 0-.263.266zm.53.263h.528v.53h-.529Zm1.058 0h1.586v.53H5.652Zm2.115 0h1.058v.53H7.767Zm1.588 0h.53v.53h-.53zm-4.762 1.059h.53v1.058h-.53Zm1.059 0h1.586v1.058H5.652Zm2.115 0h1.058v1.058H7.767Zm1.588 0h.53v1.058h-.53zm-3.73 2.117c-.345.026-.318.54.027.53h4.498c.36.007.36-.538 0-.53H5.625zm-5.332.264h3.572c.26 0 .463.202.463.463v4.367a.456.456 0 0 1-.463.462H.293a.456.456 0 0 1-.463-.462v-4.367c0-.261.202-.463.463-.463zm.066.834v1.02c0 .146.12.264.265.263h2.91a.265.265 0 0 0 .264-.264v-1.058a.265.265 0 0 0-.264-.266H.66a.31.31 0 0 0-.301.305zm9.273-.043a.266.266 0 0 0-.214.12l-1.06 1.589c-.23.299.252.62.44.293l1.059-1.588a.265.265 0 0 0-.225-.414zm-1.318.004c-.29 0-.53.24-.53.529 0 .29.24.53.53.53.289 0 .529-.24.529-.53 0-.29-.24-.53-.53-.53zm-7.426.263h2.381v.53H.888Zm8.996.81c-.289 0-.529.24-.529.53 0 .29.24.53.53.53.288 0 .528-.24.528-.53 0-.29-.24-.53-.529-.53zm-4.232.512c-.36-.008-.36.538 0 .53h1.322c.36.008.36-.538 0-.53zm-5.055.266c-.345.025-.318.54.027.53h1.06c.36.007.36-.538 0-.53H.596zm1.854 0c-.345.024-.32.538.025.53h.266c.36.007.36-.538 0-.53H2.45zm3.174.53c-.353.017-.326.547.027.529h2.115c.353 0 .353-.53 0-.53H5.625zm-5 .263c-.361-.008-.361.537 0 .53h.263c.36.007.36-.538 0-.53zm1.322 0c-.36-.008-.36.537 0 .53h.265c.36.007.36-.538 0-.53zm1.322 0c-.36-.008-.36.537 0 .53h.266c.36.007.36-.538 0-.53zm-2.672.795c-.345.025-.318.54.027.53h.264c.36.007.36-.538 0-.53H.597zm1.324 0c-.344.024-.32.538.026.53h.265c.36.007.36-.538 0-.53H1.921zm1.322 0c-.345.024-.32.54.026.53h.266c.36.007.36-.538 0-.53h-.266a.21.21 0 0 0-.026 0z" style="color:#000;font-style:normal;font-variant:normal;font-weight:400;font-stretch:normal;font-size:medium;line-height:normal;font-family:sans-serif;font-variant-ligatures:normal;font-variant-position:normal;font-variant-caps:normal;font-variant-numeric:normal;font-variant-alternates:normal;font-feature-settings:normal;text-indent:0;text-align:start;text-decoration:none;text-decoration-line:none;text-decoration-style:solid;text-decoration-color:#000;letter-spacing:normal;word-spacing:normal;text-transform:none;writing-mode:lr-tb;direction:ltr;text-orientation:mixed;dominant-baseline:auto;baseline-shift:baseline;text-anchor:start;white-space:normal;shape-padding:0;clip-rule:nonzero;display:inline;overflow:visible;visibility:visible;opacity:1;isolation:auto;mix-blend-mode:normal;color-interpolation:sRGB;color-interpolation-filters:linearRGB;solid-color:#000;solid-opacity:1;vector-effect:none;fill:#000;fill-opacity:1;fill-rule:nonzero;stroke:none;stroke-width:.42960232;stroke-linecap:round;stroke-linejoin:round;stroke-miterlimit:1.5;stroke-dasharray:none;stroke-dashoffset:0;stroke-opacity:1;paint-order:markers fill stroke;color-rendering:auto;image-rendering:auto;shape-rendering:auto;text-rendering:auto;enable-background:accumulate" transform="translate(1.832 -350.274) scale(1.23176)"/></g></svg>